<svg width="35" height="35" fill="none" xmlns="http://www.w3.org/2000/svg"><path fill-rule="evenodd" clip-rule="evenodd" d="M18.627 2.23a14.616 14.616 0 00-1.127-.042V0c.43 0 .86.016 1.288.048l-.161 2.181zm4.383.983c-.7-.27-1.421-.489-2.154-.654l.479-2.135c.837.189 1.662.438 2.463.749l-.788 2.04zm2.997 1.554a15.354 15.354 0 00-.96-.591l1.078-1.903a17.56 17.56 0 012.142 1.43L26.922 5.43a15.314 15.314 0 00-.915-.66v-.002zm4.012 3.915a15.292 15.292 0 00-1.428-1.741l1.583-1.51a18.2 18.2 0 011.634 1.991l-1.789 1.26zm1.628 2.958c-.144-.347-.3-.689-.469-1.024l1.954-.984c.386.768.715 1.563.984 2.38l-2.078.684a15.18 15.18 0 00-.391-1.056zm1.159 5.484a15.3 15.3 0 00-.219-2.242l2.155-.372c.146.844.232 1.702.254 2.56l-2.188.054h-.002zm-.287 3.364c.073-.372.132-.741.178-1.116l2.172.27a17.41 17.41 0 01-.503 2.526l-2.11-.584c.102-.36.189-.726.263-1.096zm-2.082 5.204c.402-.634.757-1.3 1.063-1.986l2 .886c-.35.787-.755 1.544-1.215 2.27l-1.848-1.17zm-2.109 2.636a14.2 14.2 0 00.766-.827l1.658 1.429c-.28.325-.573.64-.877.945l-1.547-1.547z" fill="#E31E24"/><path fill-rule="evenodd" clip-rule="evenodd" d="M17.5 2.188a15.312 15.312 0 1010.828 26.14l1.547 1.547A17.502 17.502 0 1117.5 0v2.188z" fill="#E31E24"/><path fill-rule="evenodd" clip-rule="evenodd" d="M16.406 6.563A1.094 1.094 0 0117.5 7.655v11.397l7.105 4.06a1.094 1.094 0 01-1.085 1.899l-7.656-4.375a1.093 1.093 0 01-.552-.95V7.658a1.093 1.093 0 011.094-1.095z" fill="#E31E24"/></svg>