<svg width="41" height="32" fill="none" xmlns="http://www.w3.org/2000/svg"><path d="M2.278 0h34.166a4.55 4.55 0 013.222 1.339A4.58 4.58 0 0141 4.57v6.858a4.58 4.58 0 01-1.334 3.232A4.547 4.547 0 0136.444 16H31.89v6.857c0 2.425-.96 4.75-2.669 6.465A9.095 9.095 0 0122.778 32H9.11a9.095 9.095 0 01-6.442-2.678A9.159 9.159 0 010 22.857V2.286C0 1.68.24 1.098.667.669A2.274 2.274 0 012.277 0zm29.61 4.571v6.858h4.556V4.57H31.89z" fill="#E31E24"/><path d="M0 23A10 10 0 000 3v3.265a6.735 6.735 0 010 13.47V23z" fill="#fff"/></svg>