<svg width="36" height="32" fill="none" xmlns="http://www.w3.org/2000/svg"><path d="M18 0c2.22 0 4 1.78 4 4 0 2.22-1.78 4-4 4-2.22 0-4-1.78-4-4 0-2.22 1.8-4 4-4zm17 23.974c.552.029 1-.422 1-.974v-2c0-.552-.449-.996-1-1.032-4.052-.265-7.537-2.147-10.2-5.328l-2.68-3.2A3.96 3.96 0 0019.06 10H17c-1.22 0-2.34.52-3.1 1.44l-2.68 3.2C8.538 17.821 5.052 19.703 1 19.968c-.551.036-1 .48-1 1.032v2c0 .552.448 1.003 1 .974 4.227-.218 8.015-1.824 11.121-4.575.693-.613 1.879-.151 1.879.773v1.15a1 1 0 01-.629.93L6.24 25.1C4.9 25.64 4 27 4 28.42 4 30.4 5.6 32 7.58 32H11a1 1 0 001-1 5 5 0 015-5h6c.56 0 1 .44 1 1s-.44 1-1 1h-6c-1.66 0-3 1.34-3 3a1 1 0 001 1h13.42C30.4 32 32 30.4 32 28.42c0-1.42-.9-2.78-2.24-3.32l-7.131-2.849a1 1 0 01-.629-.928v-1.15c0-.925 1.186-1.387 1.878-.774 3.107 2.75 6.895 4.357 11.122 4.575z" fill="#E31E24"/></svg>