<svg viewBox="0 0 25 24" fill="none" xmlns="http://www.w3.org/2000/svg"><path d="M11.525.712c.307-.95 1.643-.95 1.95 0l2.248 6.954c.137.425.531.712.975.712h7.275c.993 0 1.406 1.278.602 1.864L18.69 14.54c-.36.263-.51.728-.372 1.153l2.248 6.953c.307.95-.775 1.74-1.578 1.152l-5.885-4.297a1.021 1.021 0 00-1.206 0l-5.885 4.297c-.803.587-1.885-.202-1.578-1.152l2.248-6.954a1.034 1.034 0 00-.372-1.152L.425 10.243c-.804-.587-.391-1.865.602-1.865h7.275c.444 0 .838-.287.975-.712L11.525.712z" fill="#717E85"/></svg>