<svg width="15" height="14" viewBox="0 0 15 14" fill="none" xmlns="http://www.w3.org/2000/svg">
<path d="M9.33769 9.94971L10.5437 8.74368C10.7062 8.58326 10.9117 8.47345 11.1353 8.42757C11.359 8.3817 11.5911 8.40174 11.8036 8.48525L13.2734 9.07211C13.4881 9.15927 13.6722 9.30803 13.8026 9.49966C13.9329 9.69128 14.0035 9.91719 14.0056 10.1489V12.8409C14.0044 12.9986 13.9713 13.1543 13.9082 13.2988C13.8452 13.4433 13.7536 13.5735 13.6389 13.6817C13.5242 13.7898 13.3888 13.8737 13.2409 13.9281C13.0929 13.9825 12.9355 14.0065 12.7781 13.9985C2.47844 13.3578 0.400204 4.63567 0.00717016 1.29757C-0.0110747 1.13365 0.00559514 0.967719 0.0560831 0.8107C0.106571 0.653681 0.189733 0.509132 0.300097 0.386561C0.410462 0.26399 0.545529 0.166176 0.696411 0.0995532C0.847293 0.0329307 1.01057 -0.000990209 1.1755 2.2004e-05H3.77599C4.00805 0.000708891 4.23459 0.0708044 4.42649 0.201293C4.61838 0.331781 4.76685 0.516695 4.8528 0.73225L5.43965 2.20209C5.52594 2.41372 5.54795 2.64608 5.50294 2.87015C5.45794 3.09421 5.34791 3.30005 5.18661 3.46195L3.98058 4.66797C3.98058 4.66797 4.67512 9.36823 9.33769 9.94971Z" fill="#E31E24"/>
</svg>
