<svg width="41" height="32" viewBox="0 0 41 32" fill="none" xmlns="http://www.w3.org/2000/svg">
<path d="M2.27778 0H36.4444C37.6527 0 38.8114 0.481631 39.6657 1.33894C40.52 2.19625 41 3.35901 41 4.57143V11.4286C41 12.641 40.52 13.8038 39.6657 14.6611C38.8114 15.5184 37.6527 16 36.4444 16H31.8889V22.8571C31.8889 25.282 30.929 27.6075 29.2203 29.3221C27.5116 31.0367 25.1942 32 22.7778 32H9.11111C6.69469 32 4.37725 31.0367 2.66858 29.3221C0.959917 27.6075 0 25.282 0 22.8571V2.28571C0 1.67951 0.23998 1.09812 0.667146 0.66947C1.09431 0.240816 1.67367 0 2.27778 0ZM31.8889 4.57143V11.4286H36.4444V4.57143H31.8889Z" fill="#E31E24"/>
<path d="M0 23C2.65216 23 5.1957 21.9464 7.07107 20.0711C8.94643 18.1957 10 15.6522 10 13C10 10.3478 8.94643 7.8043 7.07107 5.92893C5.19571 4.05357 2.65217 3 1.90735e-06 3L9.53674e-07 6.26482C1.78628 6.26482 3.4994 6.97442 4.76249 8.23751C6.02558 9.5006 6.73518 11.2137 6.73518 13C6.73518 14.7863 6.02558 16.4994 4.76249 17.7625C3.4994 19.0256 1.78628 19.7352 0 19.7352V23Z" fill="white"/>
</svg>
