<svg width="14" height="10" viewBox="0 0 14 10" fill="none" xmlns="http://www.w3.org/2000/svg">
<path d="M0.425186 1.07167L5.98074 4.42917C6.16741 4.54167 6.40889 4.595 6.65185 4.595C6.89481 4.595 7.1363 4.54167 7.32296 4.42917L12.8785 1.07167C13.2407 0.8525 13.583 0 12.9185 0H0.385927C-0.278517 0 0.0637049 0.8525 0.425186 1.07167ZM13.0467 2.9075L7.32296 6.26333C7.07111 6.41167 6.89481 6.42917 6.65185 6.42917C6.40889 6.42917 6.23259 6.41167 5.98074 6.26333C5.72889 6.115 0.697038 3.1475 0.285927 2.90667C-0.00296173 2.73667 1.19708e-06 2.93583 1.19708e-06 3.08917V9.16667C1.19708e-06 9.51667 0.41926 10 0.740742 10H12.5926C12.9141 10 13.3333 9.51667 13.3333 9.16667V3.09C13.3333 2.93667 13.3363 2.7375 13.0467 2.9075Z" fill="#717E85"/>
</svg>
