<svg width="11" height="12" viewBox="0 0 11 12" fill="none" xmlns="http://www.w3.org/2000/svg">
<path d="M10.781 4.07331L5.62837 0.0830829C5.55784 0.0285492 5.47104 -0.000706015 5.38188 1.29417e-05C5.29273 0.000731898 5.20641 0.0313834 5.13677 0.0870475L0.148908 4.07711C0.102457 4.11438 0.0649627 4.16159 0.0391906 4.21528C0.0134185 4.26896 2.57842e-05 4.32775 3.1681e-08 4.3873V11.6028C-2.08083e-05 11.6549 0.0102401 11.7066 0.0301962 11.7548C0.0501523 11.803 0.0794124 11.8468 0.116304 11.8837C0.153196 11.9206 0.196997 11.9498 0.245202 11.9698C0.293408 11.9898 0.345073 12 0.397246 12H3.36224C3.46759 12 3.5686 11.9581 3.64309 11.8836C3.71758 11.8091 3.75945 11.7081 3.75949 11.6028V7.18483H7.17533V11.6028C7.17533 11.7081 7.21719 11.8092 7.29168 11.8836C7.36618 11.9581 7.46722 12 7.57258 12H10.5381C10.6434 12 10.7444 11.9581 10.8189 11.8836C10.8934 11.8091 10.9353 11.7081 10.9353 11.6028V4.3873C10.9353 4.32664 10.9214 4.26679 10.8947 4.21235C10.8679 4.15791 10.829 4.11034 10.781 4.07331Z" fill="#717E85"/>
</svg>
