<svg width="9" height="12" viewBox="0 0 9 12" fill="none" xmlns="http://www.w3.org/2000/svg">
<path d="M3.94781 11.7579C0.618063 6.82104 0 6.31437 0 4.5C0 2.01471 1.96994 0 4.4 0C6.83006 0 8.8 2.01471 8.8 4.5C8.8 6.31437 8.18194 6.82104 4.85219 11.7579C4.63368 12.0807 4.1663 12.0807 3.94781 11.7579ZM4.4 6.375C5.41253 6.375 6.23333 5.53554 6.23333 4.5C6.23333 3.46446 5.41253 2.625 4.4 2.625C3.38747 2.625 2.56667 3.46446 2.56667 4.5C2.56667 5.53554 3.38747 6.375 4.4 6.375Z" fill="#717E85"/>
</svg>
