<svg width="13" height="12" viewBox="0 0 13 12" fill="none" xmlns="http://www.w3.org/2000/svg">
<path d="M8.00374 8.52832L9.03747 7.49459C9.1767 7.35708 9.35286 7.26296 9.54455 7.22363C9.73624 7.18431 9.93523 7.20149 10.1174 7.27307L11.3772 7.77609C11.5613 7.8508 11.7191 7.97831 11.8308 8.14256C11.9425 8.30681 12.003 8.50045 12.0048 8.69907V11.0065C12.0038 11.1416 11.9754 11.2751 11.9213 11.399C11.8673 11.5228 11.7888 11.6345 11.6905 11.7272C11.5922 11.8199 11.4761 11.8917 11.3493 11.9384C11.2225 11.985 11.0876 12.0056 10.9526 11.9987C2.12438 11.4495 0.343032 3.97343 0.00614585 1.11221C-0.00949264 0.971699 0.00479583 0.829474 0.0480712 0.694886C0.0913466 0.560298 0.162628 0.436399 0.257226 0.331338C0.351825 0.226277 0.467596 0.142436 0.596923 0.0853313C0.726251 0.0282263 0.866204 -0.00084875 1.00758 1.88606e-05H3.23656C3.43547 0.000607621 3.62965 0.0606895 3.79413 0.172537C3.95861 0.284384 4.08587 0.442881 4.15954 0.627643L4.66256 1.88751C4.73652 2.0689 4.75538 2.26807 4.71681 2.46013C4.67823 2.65218 4.58392 2.82862 4.44566 2.96739L3.41193 4.00112C3.41193 4.00112 4.00725 8.02991 8.00374 8.52832Z" fill="#717E85"/>
</svg>
