<svg width="36" height="32" viewBox="0 0 36 32" fill="none" xmlns="http://www.w3.org/2000/svg">
<path d="M18 0C20.22 0 22 1.78 22 4C22 6.22 20.22 8 18 8C15.78 8 14 6.22 14 4C14 1.78 15.8 0 18 0ZM35.0003 23.9743C35.5519 24.0028 36 23.5523 36 23V21C36 20.4477 35.5514 20.0036 35.0003 19.9676C30.9479 19.7026 27.4634 17.8213 24.8 14.64L22.12 11.44C21.7479 10.9889 21.2805 10.6259 20.7515 10.3769C20.2224 10.1279 19.6447 9.99922 19.06 10H17C15.78 10 14.66 10.52 13.9 11.44L11.22 14.64C8.53808 17.8213 5.05222 19.7026 0.999706 19.9676C0.448598 20.0036 0 20.4477 0 21V23C0 23.5523 0.448143 24.0028 0.999692 23.9743C5.22741 23.7558 9.01545 22.1499 12.1215 19.3987C12.8137 18.7856 14 19.2478 14 20.1725V21.3226C14 21.7317 13.7509 22.0995 13.371 22.2513L6.24 25.1C4.9 25.64 4 27 4 28.42C4 30.4 5.6 32 7.58 32H11C11.5523 32 12 31.5523 12 31C12 29.6739 12.5268 28.4021 13.4645 27.4645C14.4021 26.5268 15.6739 26 17 26H23C23.56 26 24 26.44 24 27C24 27.56 23.56 28 23 28H17C15.34 28 14 29.34 14 31C14 31.5523 14.4477 32 15 32H28.42C30.4 32 32 30.4 32 28.42C32 27 31.1 25.64 29.76 25.1L22.629 22.2513C22.2491 22.0995 22 21.7317 22 21.3226V20.1725C22 19.2478 23.1863 18.7856 23.8785 19.3987C26.9845 22.1499 30.7726 23.7558 35.0003 23.9743Z" fill="#E31E24"/>
</svg>
