<svg width="44" height="32" viewBox="0 0 44 32" fill="none" xmlns="http://www.w3.org/2000/svg">
<path d="M4 0C2.93913 0 1.92172 0.421427 1.17157 1.17157C0.421427 1.92172 0 2.93913 0 4V26H4C4 27.5913 4.63214 29.1174 5.75736 30.2426C6.88258 31.3679 8.4087 32 10 32C11.5913 32 13.1174 31.3679 14.2426 30.2426C15.3679 29.1174 16 27.5913 16 26H28C28 27.5913 28.6321 29.1174 29.7574 30.2426C30.8826 31.3679 32.4087 32 34 32C35.5913 32 37.1174 31.3679 38.2426 30.2426C39.3679 29.1174 40 27.5913 40 26H44V16L38 8H32V0H4ZM18 4L26 12L18 20V14H6V10H18V4ZM32 11H37L40.94 16H32V11ZM10 23C10.7956 23 11.5587 23.3161 12.1213 23.8787C12.6839 24.4413 13 25.2044 13 26C13 26.7956 12.6839 27.5587 12.1213 28.1213C11.5587 28.6839 10.7956 29 10 29C9.20435 29 8.44129 28.6839 7.87868 28.1213C7.31607 27.5587 7 26.7956 7 26C7 25.2044 7.31607 24.4413 7.87868 23.8787C8.44129 23.3161 9.20435 23 10 23ZM34 23C34.7957 23 35.5587 23.3161 36.1213 23.8787C36.6839 24.4413 37 25.2044 37 26C37 26.7956 36.6839 27.5587 36.1213 28.1213C35.5587 28.6839 34.7957 29 34 29C33.2043 29 32.4413 28.6839 31.8787 28.1213C31.3161 27.5587 31 26.7956 31 26C31 25.2044 31.3161 24.4413 31.8787 23.8787C32.4413 23.3161 33.2043 23 34 23Z" fill="#E31E24"/>
</svg>
