<svg viewBox="0 0 25 24" fill="none" xmlns="http://www.w3.org/2000/svg">
<path d="M11.5248 0.71218C11.8317 -0.237393 13.1683 -0.237394 13.4752 0.712179L15.7231 7.66585C15.8604 8.09051 16.2541 8.37803 16.6983 8.37803H23.9726C24.966 8.37803 25.379 9.65568 24.5753 10.2425L18.6903 14.5402C18.3309 14.8026 18.1805 15.2678 18.3178 15.6925L20.5657 22.6462C20.8727 23.5957 19.7914 24.3854 18.9877 23.7985L13.1027 19.5009C12.7433 19.2384 12.2567 19.2384 11.8973 19.5009L6.01227 23.7985C5.20863 24.3854 4.12734 23.5957 4.4343 22.6462L6.68217 15.6925C6.81945 15.2678 6.66906 14.8026 6.30967 14.5402L0.424661 10.2425C-0.378978 9.65568 0.0340369 8.37803 1.02739 8.37803H8.30165C8.7459 8.37803 9.13961 8.09052 9.27689 7.66585L11.5248 0.71218Z" fill="#717E85"/>
</svg>
