<svg width="22" height="24" viewBox="0 0 22 24" fill="none" xmlns="http://www.w3.org/2000/svg">
<path fill-rule="evenodd" clip-rule="evenodd" d="M3.56479 5.25C3.19504 6.19718 3 7.21353 3 8.25L5.68463 8.25C5.68463 6.77397 6.27098 5.3584 7.31469 4.31469C8.3584 3.27098 9.77397 2.68463 11.25 2.68463C12.726 2.68463 14.1416 3.27098 15.1853 4.31469C16.229 5.3584 16.8154 6.77397 16.8154 8.25H19.5C19.5 7.21354 19.305 6.19718 18.9352 5.25C18.5244 4.19763 17.8979 3.23065 17.0836 2.41637C15.5365 0.869194 13.438 0 11.25 0C9.06196 0 6.96354 0.869194 5.41637 2.41637C4.60209 3.23065 3.9756 4.19763 3.56479 5.25Z" fill="#717E85"/>
<rect y="8" width="22" height="16" rx="1" fill="#717E85"/>
</svg>
