<svg width="35" height="35" viewBox="0 0 35 35" fill="none" xmlns="http://www.w3.org/2000/svg">
<path fill-rule="evenodd" clip-rule="evenodd" d="M18.6266 2.22906C18.2517 2.20139 17.8759 2.18752 17.5 2.1875V0C17.9299 0.000209623 18.3597 0.0162622 18.7884 0.048125L18.6266 2.22906ZM23.0103 3.21344C22.3091 2.94285 21.5889 2.72424 20.8556 2.55937L21.3347 0.424375C22.1725 0.6125 22.9972 0.861875 23.7978 1.1725L23.0103 3.21344ZM26.0072 4.76656C25.6944 4.55798 25.3741 4.36097 25.0469 4.17594L26.1253 2.27281C26.8732 2.69661 27.589 3.17477 28.2669 3.70344L26.9216 5.42938C26.625 5.198 26.32 4.97765 26.0072 4.76875V4.76656ZM30.0191 8.68219C29.5864 8.06745 29.1089 7.48545 28.5906 6.94094L30.1744 5.43156C30.765 6.055 31.3119 6.72219 31.8084 7.42219L30.0191 8.68219ZM31.6466 11.6397C31.503 11.2929 31.3468 10.9514 31.1784 10.6159L33.1319 9.63156C33.5182 10.3996 33.8472 11.1951 34.1163 12.0116L32.0381 12.6962C31.9206 12.3394 31.79 11.987 31.6466 11.6397ZM32.8059 17.1238C32.7882 16.372 32.7151 15.6226 32.5872 14.8816L34.7419 14.5097C34.8884 15.3541 34.9738 16.2116 34.9956 17.0691L32.8081 17.1238H32.8059ZM32.5194 20.4881C32.5916 20.1163 32.6506 19.7466 32.6966 19.3725L34.8688 19.6416C34.7637 20.495 34.5955 21.3395 34.3656 22.1681L32.2569 21.5841C32.3575 21.2231 32.445 20.8578 32.5194 20.4881ZM30.4369 25.6922C30.8394 25.0578 31.1938 24.3928 31.5 23.7059L33.4994 24.5919C33.1494 25.3794 32.7447 26.1362 32.2853 26.8625L30.4369 25.6922ZM28.3281 28.3281C28.595 28.0612 28.8509 27.7856 29.0938 27.5012L30.7519 28.9297C30.4711 29.2553 30.1785 29.5705 29.8747 29.8747L28.3281 28.3281Z" fill="#E31E24"/>
<path fill-rule="evenodd" clip-rule="evenodd" d="M17.5 2.1875C14.9819 2.18768 12.5028 2.80885 10.2821 3.99599C8.0614 5.18313 6.16775 6.8996 4.76887 8.99336C3.36999 11.0871 2.50905 13.4936 2.2623 15.9995C2.01555 18.5055 2.39061 21.0336 3.35426 23.36C4.31791 25.6864 5.84041 27.7392 7.7869 29.3367C9.73339 30.9341 12.0438 32.0269 14.5135 32.5182C16.9832 33.0095 19.5359 32.8842 21.9456 32.1533C24.3552 31.4224 26.5475 30.1086 28.3281 28.3281L29.8747 29.8747C27.8397 31.9108 25.334 33.4135 22.5795 34.2497C19.8249 35.0859 16.9067 35.2298 14.0833 34.6686C11.2598 34.1074 8.61843 32.8584 6.39307 31.0324C4.16771 29.2063 2.42711 26.8596 1.32548 24.2001C0.223852 21.5405 -0.204783 18.6504 0.0775532 15.7856C0.359889 12.9208 1.34448 10.1699 2.94408 7.7766C4.54369 5.3833 6.70892 3.42149 9.24793 2.06501C11.7869 0.708521 14.6213 -0.000762852 17.5 6.1569e-07V2.1875Z" fill="#E31E24"/>
<path fill-rule="evenodd" clip-rule="evenodd" d="M16.4063 6.5625C16.6963 6.5625 16.9745 6.67773 17.1796 6.88285C17.3848 7.08797 17.5 7.36617 17.5 7.65625V19.0531L24.605 23.1131C24.8495 23.2607 25.0267 23.498 25.0986 23.7744C25.1705 24.0508 25.1314 24.3443 24.9897 24.5923C24.848 24.8403 24.6149 25.023 24.3403 25.1014C24.0657 25.1798 23.7713 25.1477 23.52 25.0119L15.8637 20.6369C15.6963 20.5413 15.5572 20.4031 15.4604 20.2364C15.3636 20.0696 15.3126 19.8803 15.3125 19.6875V7.65625C15.3125 7.36617 15.4277 7.08797 15.6329 6.88285C15.838 6.67773 16.1162 6.5625 16.4063 6.5625Z" fill="#E31E24"/>
</svg>
