<svg width="11" height="14" viewBox="0 0 11 14" fill="none" xmlns="http://www.w3.org/2000/svg">
<path d="M4.60578 13.7175C0.721073 7.95788 0 7.36676 0 5.25C0 2.3505 2.29826 0 5.13333 0C7.9684 0 10.2667 2.3505 10.2667 5.25C10.2667 7.36676 9.54559 7.95788 5.66089 13.7175C5.40596 14.0942 4.86068 14.0941 4.60578 13.7175ZM5.13333 7.4375C6.31461 7.4375 7.27222 6.45813 7.27222 5.25C7.27222 4.04187 6.31461 3.0625 5.13333 3.0625C3.95205 3.0625 2.99444 4.04187 2.99444 5.25C2.99444 6.45813 3.95205 7.4375 5.13333 7.4375Z" fill="#E31E24"/>
</svg>
