<svg width="30" height="32" viewBox="0 0 30 32" fill="none" xmlns="http://www.w3.org/2000/svg">
<path d="M7.33333 7.57895C7.33333 11.7575 10.6236 15.1579 14.6667 15.1579C18.7098 15.1579 22 11.7575 22 7.57895C22 3.40042 18.7098 0 14.6667 0C10.6236 0 7.33333 3.40042 7.33333 7.57895ZM27.7037 32H28.3333C28.8856 32 29.3333 31.5523 29.3333 31V30.3158C29.3333 23.8164 24.2147 18.5263 17.9259 18.5263H11.4074C5.11704 18.5263 0 23.8164 0 30.3158V31C0 31.5523 0.447715 32 1 32H27.7037Z" fill="#E31E24"/>
<path fill-rule="evenodd" clip-rule="evenodd" d="M23.0608 19.0607L10 32H6L20.9395 16.9393L23.0608 19.0607Z" fill="white"/>
</svg>
